<?xml version="1.0" encoding="UTF-8"?>
<svg width="24px" height="24px" viewBox="0 0 24 24" version="1.1" xmlns="http://www.w3.org/2000/svg" xmlns:xlink="http://www.w3.org/1999/xlink">
    <!-- Generator: Sketch 49.3 (51167) - http://www.bohemiancoding.com/sketch -->
    <title>State/stream/cloud-ingesting@1.5x</title>
    <desc>Created with Sketch.</desc>
    <defs></defs>
    <g id="State/stream/cloud-ingesting" stroke="none" stroke-width="1" fill="none" fill-rule="evenodd">
        <rect id="bounds" x="0" y="0" width="24" height="24"></rect>
        <g id="cloud_ingest-24px" transform="translate(3.000000, 3.000000)">
            <g id="Layer_1" transform="translate(0.947368, 0.000000)">
                <polygon id="Shape" points="0 0 17.0526316 0 17.0526316 18 0 18"></polygon>
                <rect id="Rectangle-path" fill="#6D6F72" fill-rule="nonzero" transform="translate(11.599132, 13.916543) rotate(-84.850000) translate(-11.599132, -13.916543) " x="10.6861055" y="13.4165498" width="1.82605263" height="1"></rect>
                <rect id="Rectangle-path" fill="#6D6F72" fill-rule="nonzero" transform="translate(11.994450, 14.422204) rotate(-84.850000) translate(-11.994450, -14.422204) " x="11.5207714" y="13.4584541" width="1" height="1.9275"></rect>
            </g>
            <g id="Layer_2" transform="translate(0.000000, 3.000000)">
                <path d="M14.6068474,4.51865111 C14.1509301,2.18301029 12.2786258,0.393134235 9.93920371,0.0565005159 C7.59978161,-0.280133203 5.30482273,0.91008993 4.21788456,3.02371986 C1.75888499,3.15788441 -0.126551463,5.27455676 0.0066443473,7.75143992 C0.139840157,10.2283231 2.24122969,12.1274718 4.70022926,11.9933073 L8.71482132,11.9933073 C8.65875647,11.7278402 8.62892818,11.4574332 8.62577306,11.1860445 C8.62803831,10.9549238 8.65289388,10.7245895 8.69997994,10.4983761 L4.70022926,10.4983761 C3.0608962,10.4983761 1.73195418,9.15976906 1.73195418,7.5085136 C1.73195418,5.85725814 3.0608962,4.51865111 4.70022926,4.51865111 L5.22709809,4.51865111 C5.78417478,2.54668187 7.69856332,1.28958877 9.71462283,1.57189485 C11.7306823,1.85420093 13.2320655,3.5895999 13.2340201,5.63984954 L13.2340201,6.01358235 L14.3471233,6.01358235 C15.2521421,6.01129274 16.0684651,6.56110017 16.4121505,7.40441331 C16.7558359,8.24772645 16.5584733,9.21668408 15.9128884,9.85555565 C16.0767428,10.2798701 16.162248,10.7307707 16.1651918,11.1860445 C16.160171,11.2963877 16.1477751,11.4062648 16.1280883,11.5149293 C17.5326557,10.7077414 18.2564514,9.07722219 17.9171601,7.48462606 C17.5778688,5.89202994 16.2536432,4.70419651 14.6439508,4.54854973 L14.6068474,4.51865111 Z" id="Shape" fill="#6D6F72" fill-rule="nonzero"></path>
                <ellipse id="Oval" stroke="#6D6F72" stroke-width="1.2" cx="12.4704" cy="11.06" rx="2.628" ry="2.7375"></ellipse>
            </g>
        </g>
    </g>
</svg>