<svg viewBox="0 0 1024 1024" xmlns="http://www.w3.org/2000/svg"><circle cx="511.5" cy="511.5" fill="#fff" r="512"/><g fill="#2fb04a"><path d="m512 191.46c-111.53 0-201.92 89-201.92 198.79a196 196 0 0 0 37.22 115.1c14.67-9.91 28.27-18.42 39.29-25.68a150.26 150.26 0 0 1 -29.45-89.42c0-84.15 69.34-152.43 154.86-152.43s154.86 68.28 154.86 152.43c0 57.27-32.07 107.14-79.45 133.19 1.15 17.45 1.5 34.55 1.3 50.77 73.47-29.74 125.21-100.87 125.21-184 0-109.73-90.41-198.75-201.92-198.75z"/><path d="m512 272.19c-66.23 0-119.92 52.92-119.92 118.06a116.61 116.61 0 0 0 22.51 68.89c12.77-10.44 26-22.32 38.74-34.44a66.27 66.27 0 0 1 -9.62-34.45c0-37.1 30.58-67.2 68.29-67.2s68.32 30.1 68.32 67.2a66.42 66.42 0 0 1 -9.61 34.45 397.28 397.28 0 0 1 12.85 60.35 117.31 117.31 0 0 0 48.38-94.8c-.02-65.14-53.71-118.06-119.94-118.06z"/><path d="m512 158.58c130 0 235.35 103.7 235.35 231.67 0 102-66.92 188.62-159.89 219.55-.53 9.2-1.2 17.85-1.93 25.87a126.89 126.89 0 0 1 13-.67 124.88 124.88 0 0 1 44.7 8.27c93.38-47 157.31-142.65 157.31-253 0-156.81-129.18-284-288.52-284s-288.52 127.17-288.52 283.98a279.69 279.69 0 0 0 56.5 168.81 398.61 398.61 0 0 1 40.22-34.42 228.52 228.52 0 0 1 -43.55-134.39c-.02-127.97 105.33-231.67 235.33-231.67z"/><path d="m396.47 809.79a109.47 109.47 0 0 1 26.93-72.19 103.56 103.56 0 0 1 62.45-34.47c16.15-29.71 42.15-51.38 72.57-61.58 6.13-64.09 8.29-182-46.44-251.3 0 0-70.69 81-119.92 113.64-59.29 39.4-219.22 125.58-106.83 287.05 0 0 201.46-128.57 226.75-302 0 0-4.25 175.08-285.58 404.45 0 0 34.54 54.64 61.86 0 0 0 27.33-66.58 57.71-51.64 0 0 22.84-.35 53.35-7a110.82 110.82 0 0 1 -2.85-24.96z"/></g><path d="m765.45 774.74a72.5 72.5 0 0 0 -48.45-23.6l-5.81-.41-1.1-5.73c-10.49-55-57.44-94.83-111.63-94.83-42.56 0-81.25 24.29-101 63.38l-1.85 3.68-4.09.45c-45.57 5-79.93 44.6-79.93 92.11 0 51.14 40.21 92.75 89.63 92.75h210.68c40.49 0 73.43-34.11 73.43-76a76.45 76.45 0 0 0 -19.88-51.8z" fill="#444243"/><path d="m534 787.79 11.36 11.37 45.07-45v98.11h16.12v-98.1l45 45.07 11.45-11.45-64.51-64.49z" fill="#fff" stroke="#fff" stroke-miterlimit="10" stroke-width="9.53"/></svg>